<?xml version="1.0" encoding="UTF-8" standalone="no"?>
<svg
   xmlnsDc="http://purl.org/dc/elements/1.1/"
   xmlnsCc="http://creativecommons.org/ns#"
   xmlnsRdf="http://www.w3.org/1999/02/22-rdf-syntax-ns#"
   xmlnsSvg="http://www.w3.org/2000/svg"
   xmlns="http://www.w3.org/2000/svg"
   xmlnsSodipodi="http://sodipodi.sourceforge.net/DTD/sodipodi-0.dtd"
   xmlnsInkscape="http://www.inkscape.org/namespaces/inkscape"
   version="1.1"
   id="svg2"
   xmlSpace="preserve"
   width="492.59332"
   height="222.22267"
   viewBox="0 0 492.59332 222.22267"
   sodipodiDocname="goodgym_red.ai"><metadata
     id="metadata8"><rdfRDF><ccWork
         rdfAbout=""><dcFormat>image/svg+xml</dcFormat><dcType
           rdfResource="http://purl.org/dc/dcmitype/StillImage" /></ccWork></rdfRDF></metadata><defs
     id="defs6"><clipPath
       clipPathUnits="userSpaceOnUse"
       id="clipPath18"><path
         d="M 0,166.667 H 369.445 V 0 H 0 Z"
         id="path16" /></clipPath></defs><sodipodiNamedview
     pagecolor="#ffffff"
     bordercolor="#666666"
     borderopacity="1"
     objecttolerance="10"
     gridtolerance="10"
     guidetolerance="10"
     inkscapePageopacity="0"
     inkscapePageshadow="2"
     inkscapeWindow-width="640"
     inkscapeWindow-height="480"
     id="namedview4" /><g
     id="g10"
     inkscapeGroupmode="layer"
     inkscapeLabel="goodgym_red"
     transform="matrix(1.3333333,0,0,-1.3333333,0,222.22267)"><g
       id="g12"><g
         id="g14"
         clip-path="url(#clipPath18)"><g
           id="g20"
           transform="translate(160.2061,47.1045)"><path
             d="m 0,0 c -0.533,-1.081 -1.185,-3.126 -1.332,-4.781 -0.718,-8.263 4.829,-14.698 12.085,-14.872 6.157,-0.143 11.625,4.889 12.48,11.685 0.424,3.388 -0.668,7.265 -1.991,9.426 C 19.262,4.687 15.457,7.268 10.09,6.769 4.95,6.293 1.583,3.224 0,0 M 23.497,28.941 H 33.586 V 8.761 c 0,-6.885 0.501,-13.869 -0.528,-19.516 -1.868,-10.219 -9.795,-18.301 -21.906,-18.324 -6.976,-0.013 -12.167,2.873 -15.8,6.509 -3.816,3.814 -6.66,8.617 -7.036,15.133 -0.38,6.56 2.468,12.458 5.973,16.198 3.972,4.236 9.761,8.15 18.32,7.435 4.553,-0.382 8.014,-3.117 10.758,-5.179 v 17.528 c -0.014,0.185 -0.025,0.375 0.13,0.396"
             style="fill:#ed1c24;fill-opacity:1;fill-rule:evenodd;stroke:none"
             id="path22" /></g><g
           id="g24"
           transform="translate(15.4883,44.4463)"><path
             d="m 0,0 c -2.204,-9.221 4.411,-17.828 13.94,-16.862 5.989,0.611 10.9,6.758 10.49,14.208 C 24.025,4.694 18.219,10.373 10.356,9.427 4.909,8.772 1.052,4.401 0,0 m -9.825,-28.011 c 3.145,-0.601 7.888,0.783 11.152,0 1.007,-0.244 2.934,-2.453 3.984,-3.055 5.225,-2.992 12.204,-1.801 15.801,1.727 2.536,2.488 3.532,5.389 4.113,9.692 -1.276,-0.905 -1.823,-2.118 -3.184,-3.186 -5.985,-4.713 -15.576,-4.162 -21.775,-0.266 -5.483,3.448 -10.217,10.284 -10.754,17.657 -0.591,8.115 2.69,13.824 6.771,17.791 3.572,3.471 8.182,6.187 14.339,6.638 9.223,0.676 15.297,-3.126 19.253,-7.965 2.096,-2.57 3.562,-5.741 4.246,-9.294 0.721,-3.749 0.531,-8.243 0.531,-13.011 0,-10.03 -0.682,-16.575 -4.911,-22.172 -3.91,-5.175 -10.24,-8.762 -18.323,-8.762 -11.169,0 -17.654,6.005 -21.243,14.206"
             style="fill:#ed1c24;fill-opacity:1;fill-rule:evenodd;stroke:none"
             id="path26" /></g><g
           id="g28"
           transform="translate(64.0815,41.2598)"><path
             d="m 0,0 c -0.348,-8.021 5.552,-14.54 13.94,-13.676 6.064,0.629 10.582,6.01 10.754,12.614 0.116,4.447 -2.121,8.786 -4.513,10.889 -1.854,1.626 -5.117,3.29 -9.294,2.786 C 4.757,11.876 0.281,6.526 0,0 m 10.753,22.041 c 6.981,0.545 13.186,-2.281 16.863,-5.708 3.602,-3.36 6.854,-8.758 7.3,-15.27 0.508,-7.349 -2.266,-12.916 -5.707,-16.863 -3.462,-3.969 -8.732,-6.86 -15.135,-7.3 -6.88,-0.474 -12.796,2.288 -16.73,5.84 -4.124,3.726 -6.907,8.382 -7.435,15.137 -0.832,10.644 4.949,18.024 11.948,21.642 2.556,1.318 5.513,2.255 8.896,2.522"
             style="fill:#ed1c24;fill-opacity:1;fill-rule:evenodd;stroke:none"
             id="path30" /></g><g
           id="g32"
           transform="translate(118.7813,52.9424)"><path
             d="m 0,0 c -3.669,-1.74 -6.845,-5.513 -7.303,-10.752 -0.672,-7.714 4.345,-13.995 10.887,-14.606 8.418,-0.785 14.517,6.111 13.676,14.739 C 16.619,-4.043 11.146,1.907 3.451,0.931 2.168,0.769 0.975,0.464 0,0 m 3.318,10.358 c 7.133,0.586 13.036,-2.264 16.863,-5.708 3.661,-3.294 7.001,-8.564 7.301,-15.138 0.339,-7.418 -1.953,-13.035 -5.575,-16.994 -3.588,-3.919 -8.687,-6.828 -15.136,-7.302 -6.95,-0.51 -12.719,2.293 -16.729,5.842 -3.983,3.532 -7.131,8.353 -7.566,14.872 -0.527,7.83 2.42,13.062 5.708,16.86 3.336,3.856 8.289,7.006 15.134,7.568"
             style="fill:#ed1c24;fill-opacity:1;fill-rule:evenodd;stroke:none"
             id="path34" /></g><g
           id="g36"
           transform="translate(211.4526,50.5547)"><path
             d="m 0,0 c -2.043,-2.042 -3.444,-4.537 -3.72,-8.101 -0.64,-8.323 4.73,-14.27 11.156,-14.87 8.19,-0.759 14.328,5.951 13.543,14.87 C 20.391,-1.438 14.634,4.248 6.906,3.318 3.673,2.931 1.541,1.542 0,0 m -13.276,-34.119 h 5.71 c 1.782,0 4.045,0.399 5.574,0 1.066,-0.282 2.372,-2.184 3.318,-2.792 4.051,-2.582 10.237,-2.567 14.075,-0.264 3.709,2.224 5.866,5.997 6.375,11.419 -1.355,-1.121 -2.05,-2.344 -3.322,-3.318 -6.713,-5.146 -17.068,-3.526 -22.836,0.661 -5.813,4.227 -10.165,11.554 -9.559,20.582 0.406,6.07 3.348,10.518 6.771,13.939 3.499,3.5 7.98,6.303 14.341,6.771 7.992,0.586 14.084,-2.485 17.922,-6.374 3.532,-3.579 5.768,-8.617 6.108,-14.072 0.33,-5.31 0,-10.779 0,-16.065 0,-5.021 -1.145,-9.588 -2.922,-13.011 C 24.76,-43.428 17.161,-48.304 8.1,-48.325 c -11.266,-0.029 -17.716,6.013 -21.376,14.206"
             style="fill:#ed1c24;fill-opacity:1;fill-rule:evenodd;stroke:none"
             id="path38" /></g><g
           id="g40"
           transform="translate(323.2212,57.9893)"><path
             d="m 0,0 c 3.558,4.351 12.281,6.579 18.851,4.645 4.713,-1.384 8.323,-4.467 10.489,-8.229 4.846,-8.418 1.652,-23.163 2.391,-34.917 H 21.643 c -0.429,8.026 0.563,18.775 0,26.553 -0.253,3.472 -2.326,6.307 -5.049,7.435 -5.53,2.289 -10.884,-1.888 -11.416,-6.635 -0.449,-3.986 0,-9.035 0,-13.809 0,-4.842 0.107,-9.569 -0.133,-13.544 H -5.046 c -0.615,7.911 0.811,19.222 0,27.081 -0.352,3.414 -2.82,6.267 -5.708,7.173 -5.404,1.689 -10.243,-2.375 -10.757,-7.173 -0.434,-4.078 0,-8.851 0,-13.537 0.003,-4.589 0,-9.221 0,-13.544 h -10.088 c 0.74,13.333 -2.633,27.673 2.921,35.98 2.739,4.095 7.724,7.509 13.94,7.965 C -7.799,5.955 -3.57,3.165 0,0"
             style="fill:#ed1c24;fill-opacity:1;fill-rule:evenodd;stroke:none"
             id="path42" /></g><g
           id="g44"
           transform="translate(244.9106,61.9736)"><path
             d="m 0,0 h 11.019 c 3.767,-8.803 7.212,-17.924 11.155,-26.555 3.772,8.794 7.471,17.665 11.15,26.555 H 44.21 C 35.99,-18.821 27.853,-37.725 19.648,-56.558 H 9.426 c 2.405,5.604 4.753,11.266 7.17,16.857 C 11.184,-26.343 5.472,-13.295 0,0"
             style="fill:#ed1c24;fill-opacity:1;fill-rule:evenodd;stroke:none"
             id="path46" /></g><g
           id="g48"
           transform="translate(258.521,129.9595)"><path
             d="m 0,0 c -1.458,10.117 -6.385,18.319 -14.787,24.603 -8.4,6.287 -17.672,8.701 -27.823,7.23 -6.339,-0.909 -12.167,-3.39 -17.491,-7.447 -5.045,-4.013 -8.969,-9.016 -11.782,-15.009 l 9.817,-4.471 c 2,4.281 4.822,7.891 8.463,10.823 1.349,1.075 2.749,1.995 4.197,2.771 3.006,1.38 6.168,2.252 9.502,2.592 4.803,0.475 9.309,-0.251 13.5,-2.188 6.67,-3.08 11.302,-8.121 13.883,-15.139 2.581,-7.008 2.333,-13.854 -0.75,-20.53 -3.074,-6.671 -8.12,-11.293 -15.133,-13.876 -1.247,-0.461 -2.489,-0.827 -3.723,-1.105 -0.429,-0.083 -0.857,-0.155 -1.291,-0.217 l -0.363,-0.108 c -5.149,-0.837 -10.196,-0.114 -15.151,2.174 -4.813,2.221 -8.543,5.422 -11.188,9.602 l 9.688,-0.208 0.319,9.489 -17.837,0.38 v 0.005 l -9.487,0.206 2.821,-27.92 9.857,-0.274 -0.971,8.513 c 2.939,-3.872 7.048,-7.029 12.331,-9.466 8.037,-3.711 16.24,-4.492 24.608,-2.362 8.76,1.951 15.947,6.653 21.555,14.114 C -0.95,-19.414 1.46,-10.145 0,0"
             style="fill:#ed1c24;fill-opacity:1;fill-rule:nonzero;stroke:none"
             id="path50" /></g><g
           id="g52"
           transform="translate(99.832,129.9595)"><path
             d="m 0,0 c 1.458,10.117 6.389,18.319 14.79,24.603 8.398,6.287 17.672,8.701 27.821,7.23 6.34,-0.909 12.168,-3.39 17.492,-7.447 C 65.144,20.373 69.07,15.37 71.884,9.377 L 62.068,4.906 c -2.002,4.281 -4.823,7.891 -8.464,10.823 -1.349,1.075 -2.749,1.995 -4.198,2.771 -3.003,1.38 -6.167,2.252 -9.501,2.592 -4.803,0.475 -9.307,-0.251 -13.5,-2.188 -6.67,-3.08 -11.3,-8.121 -13.882,-15.139 -2.581,-7.008 -2.335,-13.854 0.747,-20.53 3.079,-6.671 8.122,-11.293 15.136,-13.876 1.247,-0.461 2.488,-0.827 3.724,-1.105 0.426,-0.083 0.854,-0.155 1.29,-0.217 l 0.367,-0.108 c 5.142,-0.837 10.192,-0.114 15.147,2.174 4.812,2.221 8.542,5.422 11.188,9.602 l -9.687,-0.208 -0.321,9.489 17.839,0.38 v 0.005 l 9.483,0.206 -2.818,-27.92 -9.858,-0.274 0.969,8.513 C 62.787,-33.976 58.684,-37.133 53.4,-39.57 45.363,-43.281 37.161,-44.062 28.793,-41.932 20.034,-39.981 12.848,-35.279 7.237,-27.818 0.951,-19.414 -1.457,-10.145 0,0"
             style="fill:#ed1c24;fill-opacity:1;fill-rule:nonzero;stroke:none"
             id="path54" /></g></g></g><text
       transform="matrix(1,0,0,-1,353.1929,58.4102)"
       style="font-variant:normal;font-weight:bold;font-stretch:normal;font-size:16.928px;font-family:Helvetica;-inkscape-font-specification:Helvetica-Bold;writing-mode:lr-tb;fill:#ed1c24;fill-opacity:1;fill-rule:nonzero;stroke:none"
       id="text58"><tspan
         x="0"
         y="0"
         id="tspan56">®</tspan></text></g></svg>
